<svg id="Layer_1" data-name="Layer 1" xmlns="http://www.w3.org/2000/svg" xmlns:xlink="http://www.w3.org/1999/xlink" width="18.8mm" height="5.67mm" viewBox="0 0 53.28 16.07"><defs><style>.cls-1{fill:#404041;}.cls-2{fill:#ee4040;}.cls-3{fill:url(#linear-gradient);}</style><linearGradient id="linear-gradient" x1="-1697.03" y1="-899.14" x2="-1696.79" y2="-899.14" gradientTransform="matrix(154.93, 0, 0, -154.93, 262930.49, -139290.57)" gradientUnits="userSpaceOnUse"><stop offset="0" stop-color="#7fcece"/><stop offset="1" stop-color="#27b9a4"/></linearGradient></defs><title>pt-logo</title><path class="cls-1" d="M1.71,15.48a.53.53,0,1,1,1,0v1a3.21,3.21,0,0,1,2.72-1.58,3.47,3.47,0,0,1,3.39,3.68v0a3.47,3.47,0,0,1-3.39,3.69,3.19,3.19,0,0,1-2.72-1.51v3.09a.51.51,0,0,1-.52.53.52.52,0,0,1-.53-.53Zm6.08,3.1v0a2.56,2.56,0,0,0-2.5-2.74,2.65,2.65,0,0,0-2.57,2.73v0a2.64,2.64,0,0,0,2.57,2.74A2.5,2.5,0,0,0,7.79,18.58Z" transform="translate(-1.71 -8.3)"/><path class="cls-1" d="M10.07,15.48a.53.53,0,1,1,1,0v1.33a2.93,2.93,0,0,1,2.45-1.89.51.51,0,0,1,.52.53.53.53,0,0,1-.47.54c-1.37.16-2.5,1.19-2.5,3.24v2.41a.53.53,0,1,1-1,0Z" transform="translate(-1.71 -8.3)"/><path class="cls-1" d="M15,15.48a.54.54,0,0,1,.52-.54.53.53,0,0,1,.54.54v6.16a.52.52,0,0,1-.52.54.54.54,0,0,1-.54-.54Z" transform="translate(-1.71 -8.3)"/><path class="cls-1" d="M17.8,15.48a.54.54,0,0,1,.52-.54.53.53,0,0,1,.54.54v.77a2.69,2.69,0,0,1,2.43-1.39A2.59,2.59,0,0,1,24,17.7v3.94a.54.54,0,0,1-.53.54.53.53,0,0,1-.53-.54V18a1.89,1.89,0,0,0-2-2.14,2.09,2.09,0,0,0-2.13,2.23v3.59a.52.52,0,0,1-.52.54.54.54,0,0,1-.54-.54Z" transform="translate(-1.71 -8.3)"/><path class="cls-1" d="M25.83,20.23V16h-.57a.48.48,0,0,1-.47-.47.48.48,0,0,1,.47-.47h.57V13.34a.53.53,0,0,1,.52-.54.55.55,0,0,1,.54.54V15h1.84a.48.48,0,0,1,.48.47.48.48,0,0,1-.48.47H26.89v4.14a1,1,0,0,0,1.19,1.18,3.23,3.23,0,0,0,.65-.09.45.45,0,0,1,.45.45.44.44,0,0,1-.3.41,2.72,2.72,0,0,1-1,.19A1.81,1.81,0,0,1,25.83,20.23Z" transform="translate(-1.71 -8.3)"/><path class="cls-1" d="M34.51,20.23V16h-.58a.48.48,0,0,1-.46-.47.47.47,0,0,1,.46-.47h.58V13.34A.53.53,0,0,1,35,12.8a.55.55,0,0,1,.54.54V15h1.84a.48.48,0,0,1,.48.47.48.48,0,0,1-.48.47H35.57v4.14a1,1,0,0,0,1.19,1.18,3.37,3.37,0,0,0,.65-.09.44.44,0,0,1,.15.86,2.81,2.81,0,0,1-1.05.19A1.8,1.8,0,0,1,34.51,20.23Z" transform="translate(-1.71 -8.3)"/><path class="cls-1" d="M38.88,15.48a.53.53,0,1,1,1.06,0v1.33a2.93,2.93,0,0,1,2.44-1.89.5.5,0,0,1,.52.53.53.53,0,0,1-.46.54c-1.38.16-2.5,1.19-2.5,3.24v2.41a.53.53,0,1,1-1.06,0Z" transform="translate(-1.71 -8.3)"/><path class="cls-1" d="M43.19,20.05v0c0-1.49,1.24-2.29,3-2.29a7.49,7.49,0,0,1,2.18.3v-.25c0-1.27-.78-1.93-2.11-1.93a4.3,4.3,0,0,0-1.84.4.79.79,0,0,1-.2,0,.47.47,0,0,1-.46-.45.48.48,0,0,1,.29-.44,5.46,5.46,0,0,1,2.32-.48,3.11,3.11,0,0,1,2.29.78,2.79,2.79,0,0,1,.73,2.07v3.89a.5.5,0,0,1-.51.52.49.49,0,0,1-.51-.5V21a3.12,3.12,0,0,1-2.57,1.22A2.4,2.4,0,0,1,43.19,20.05Zm5.23-.55v-.69a7.42,7.42,0,0,0-2.08-.3c-1.33,0-2.08.58-2.08,1.47v0c0,.89.83,1.41,1.79,1.41A2.14,2.14,0,0,0,48.42,19.5Z" transform="translate(-1.71 -8.3)"/><path class="cls-1" d="M51.08,15.48a.54.54,0,0,1,.53-.54.53.53,0,0,1,.53.54v6.16a.52.52,0,0,1-.52.54.54.54,0,0,1-.54-.54Z" transform="translate(-1.71 -8.3)"/><path class="cls-1" d="M53.93,12.55a.53.53,0,0,1,.52-.53.54.54,0,0,1,.54.53v9.09a.52.52,0,0,1-.52.54.53.53,0,0,1-.54-.54Z" transform="translate(-1.71 -8.3)"/><path class="cls-2" d="M15.52,14a.61.61,0,0,0,.43-.17.62.62,0,0,0,.18-.43A.6.6,0,0,0,16,13a.58.58,0,0,0-.43-.18.58.58,0,0,0-.42.18.6.6,0,0,0-.18.42.62.62,0,0,0,.18.43.61.61,0,0,0,.42.17" transform="translate(-1.71 -8.3)"/><path class="cls-3" d="M48.92,12.36h0a.6.6,0,1,0,.55-1.06h0a.6.6,0,1,0-.55,1.06Zm-2.6-1.09h0a.6.6,0,0,0,.39-1.14h0a.6.6,0,0,0-.76.37.61.61,0,0,0,.37.77Zm-2.74-.78h0A.59.59,0,0,0,44.3,10a.6.6,0,0,0-1.17-.27A.59.59,0,0,0,43.58,10.49ZM40.76,10h0a.61.61,0,0,0,.69-.51.6.6,0,0,0-.51-.68h0a.59.59,0,0,0-.68.5.6.6,0,0,0,.5.69Zm-2.85-.32h0a.61.61,0,0,0,.65-.56A.6.6,0,0,0,38,8.45h0a.59.59,0,0,0-.64.55.6.6,0,0,0,.55.65ZM35,9.5h0a.6.6,0,1,0,0-1.2h0a.61.61,0,0,0-.62.59A.6.6,0,0,0,35,9.5Zm-2.87,0h0a.6.6,0,0,0,.58-.62.61.61,0,0,0-.63-.58h0a.6.6,0,0,0-.58.62.59.59,0,0,0,.63.58Zm-2.88.19h0a.61.61,0,0,0,.55-.66.61.61,0,0,0-.66-.54h0a.6.6,0,0,0-.54.65.6.6,0,0,0,.65.55Zm-2.85.35h0a.6.6,0,0,0-.18-1.19h0a.6.6,0,1,0,.18,1.19Zm-2.82.54h0a.61.61,0,0,0,.46-.72.61.61,0,0,0-1.18.27A.61.61,0,0,0,23.61,10.6Zm-2.75.76h0a.59.59,0,0,0,.38-.76.6.6,0,0,0-.76-.38h0a.61.61,0,0,0-.38.76.6.6,0,0,0,.76.38Zm-2.62,1.06h0a.6.6,0,0,0,.28-.8.61.61,0,0,0-.81-.28h0a.6.6,0,0,0-.27.81.59.59,0,0,0,.8.27Z" transform="translate(-1.71 -8.3)"/><path class="cls-2" d="M51.61,14a.61.61,0,0,0,.43-.17.62.62,0,0,0,.18-.43A.6.6,0,0,0,52,13a.58.58,0,0,0-.43-.18.56.56,0,0,0-.42.18.6.6,0,0,0-.18.42.62.62,0,0,0,.18.43.59.59,0,0,0,.42.17" transform="translate(-1.71 -8.3)"/></svg>